<svg xmlns="http://www.w3.org/2000/svg" xmlns:xlink="http://www.w3.org/1999/xlink" width="64" height="64" version="1.1" viewBox="0 0 64 64"><title>icon\</title><desc>Created with Sketch.</desc><g id="icon\" fill="none" fill-rule="evenodd" stroke="none" stroke-width="1"><g id="wallet" fill-rule="nonzero" transform="translate(1.000000, 6.000000)"><polygon id="Rectangle" fill="#5A78F0" points="4.383 1.532 7.916 2.656 11.779 1.532 10.381 5.121 11.779 8.927 7.973 7.529 4.383 8.927 5.508 5.065" transform="translate(8.081082, 5.229302) rotate(45.000000) translate(-8.081082, -5.229302)"/><polygon id="Rectangle" fill="#CDF4EE" points="55.535 6.207 58.479 7.144 61.697 6.207 60.532 9.197 61.697 12.369 58.526 11.204 55.535 12.369 56.472 9.151" transform="translate(58.615965, 9.287984) rotate(45.000000) translate(-58.615965, -9.287984)"/><g id="Group-64" transform="translate(11.093023, 8.627907)"><path id="Shape" fill="#5A78F0" d="M35.4096345,15.5922716 C34.3918329,15.5922716 32.5056887,16.1652672 31.278715,17.3132912 C29.8750243,18.6266614 29.1905059,20.6013929 29.1905059,21.7648726 C29.1905059,22.914783 29.5271904,25.4431646 30.9085272,26.9152443 C32.1465097,28.2345523 34.3782529,28.5678072 35.4096345,28.5678072 L44.6435493,28.5678072 L44.6435493,15.5922716 L35.4096345,15.5922716 Z"/><path id="Path" fill="#CDF4EE" d="M35.6260545,15.5922716 L44.6435493,15.5922716 L44.6435493,7.8069504 C44.2584593,7.8069504 4.53716741,7.8069504 4.53716741,7.8069504 C3.71874217,7.8069504 2.47117836,7.37146297 1.78020294,6.66535361 C1.08922752,5.95924423 0.831695275,4.84111727 0.672526763,4.38131722 C0.672526763,4.97352065 0.672526763,28.9613119 0.672526763,29.8653607 C0.672526763,33.4483386 3.55623573,36.3531284 7.11359451,36.3531284 L44.6435493,36.3531284 L44.6435493,28.5678072 L35.6260545,28.5678072 C32.0746215,28.5678072 29.1849867,25.6572216 29.1849867,22.0800395 C29.1849867,18.5028574 32.0746215,15.5922716 35.6260545,15.5922716 Z"/><path id="Path" fill="#00C0A5" d="M4.52485528,0 C2.39725705,0 0.672526763,1.77037984 0.672526763,3.95429062 C0.672526763,6.1382014 2.39725705,7.83239697 4.52485528,7.83239697 L39.3670266,7.83239697 L39.3670266,0 L4.52485528,0 Z"/><circle id="Oval" cx="34.968" cy="22.14" r="1.926" fill="#FFF"/></g><polygon id="Rectangle" fill="#00C0A5" points="2.535 42.461 6.656 43.774 11.162 42.461 9.531 46.649 11.162 51.089 6.722 49.458 2.535 51.089 3.847 46.583" transform="translate(6.848523, 46.775270) rotate(45.000000) translate(-6.848523, -46.775270)"/></g></g></svg>