<svg xmlns="http://www.w3.org/2000/svg" xmlns:xlink="http://www.w3.org/1999/xlink" id="Layer_1" x="0" y="0" version="1.1" viewBox="0 0 200 200" xml:space="preserve" style="enable-background:new 0 0 200 200"><style type="text/css">.st0{fill:url(#SVGID_1_)}.st1{fill:url(#SVGID_2_)}.st2{fill:url(#SVGID_3_)}.st3{fill:url(#SVGID_4_)}.st4{fill:url(#SVGID_5_)}.st5{fill:url(#SVGID_6_)}</style><linearGradient id="SVGID_1_" x1="-1026.734" x2="-1018.602" y1="6.149" y2="6.149" gradientTransform="matrix(8.9707 4.5186 -4.5186 8.9707 9282.0518 4706.3975)" gradientUnits="userSpaceOnUse"><stop offset="0" style="stop-color:#8277a6"/><stop offset="1" style="stop-color:#655880"/></linearGradient><path d="M28.6,149.8l71.4,36.4v-71.4L28.6,149.8z" class="st0"/><linearGradient id="SVGID_2_" x1="-1155.457" x2="-1147.325" y1="125.474" y2="125.474" gradientTransform="matrix(6.5179 -9.5595 9.5595 6.5179 6426.2061 -11670.6035)" gradientUnits="userSpaceOnUse"><stop offset="0" style="stop-color:#665a82"/><stop offset=".237" style="stop-color:#73638d"/><stop offset="1" style="stop-color:#b4a6d1"/></linearGradient><path d="M100.1,186.2l71.3-36.3l-71.3-35.1C100.1,114.8,100.1,186.2,100.1,186.2z" class="st1"/><linearGradient id="SVGID_3_" x1="-1128.907" x2="-1120.774" y1="138.673" y2="138.673" gradientTransform="matrix(6.8526 -7.5597 7.5597 6.8526 6821.6333 -9350.2051)" gradientUnits="userSpaceOnUse"><stop offset="0" style="stop-color:#b0a0ce"/><stop offset="1" style="stop-color:#cec6e2"/></linearGradient><path d="M100.1,114.8l71.3,35.1l-29.1-55.7L100.1,114.8z" class="st2"/><linearGradient id="SVGID_4_" x1="-1247.407" x2="-1239.275" y1="450.767" y2="450.767" gradientTransform="matrix(0.9665 -2.8993 2.8993 0.9665 -35.9062 -3923.2268)" gradientUnits="userSpaceOnUse"><stop offset="0" style="stop-color:#887cae"/><stop offset="1" style="stop-color:#7a6e9b"/></linearGradient><path d="M28.6,149.8l71.4-35L57.9,94.1L28.6,149.8z" class="st3"/><linearGradient id="SVGID_5_" x1="-1441.633" x2="-1433.501" y1="-135.75" y2="-135.75" gradientTransform="matrix(-4.5518 0 0 -4.5518 -6452.3115 -553.6054)" gradientUnits="userSpaceOnUse"><stop offset="0" style="stop-color:#b0a0ce"/><stop offset="1" style="stop-color:#887cae"/></linearGradient><path d="M57.9,94.1l42.1,20.7v-101L57.9,94.1z" class="st4"/><linearGradient id="SVGID_6_" x1="-858.478" x2="-850.346" y1="-93.084" y2="-93.084" gradientTransform="matrix(3.2112 3.0479 -3.0479 3.2112 2585.6968 2991.6873)" gradientUnits="userSpaceOnUse"><stop offset="0" style="stop-color:#b0a0ce"/><stop offset="1" style="stop-color:#cec6e2"/></linearGradient><path d="M100.1,114.8l42.2-20.6l-42.2-80.4C100.1,13.8,100.1,114.8,100.1,114.8z" class="st5"/></svg>