<svg xmlns="http://www.w3.org/2000/svg" xmlns:xlink="http://www.w3.org/1999/xlink" id="Layer_1" x="0" y="0" version="1.1" viewBox="0 0 60 60" xml:space="preserve" style="enable-background:new 0 0 60 60"><style type="text/css">.st0{fill:#fff}.st1{fill:none;stroke:#c3f0e9}.st2{fill:#efefef}.st3{fill:#5a78f0}.st4{fill:#07efc8}.st5{fill:#05c0a5}.st6{fill:#7ba1ff}.st7{fill:#ddd}</style><path d="M10,0.5h40c5.2,0,9.5,4.3,9.5,9.5v40c0,5.2-4.3,9.5-9.5,9.5H10c-5.2,0-9.5-4.3-9.5-9.5V10	C0.5,4.8,4.8,0.5,10,0.5z" class="st0"/><path d="M10,0.5h40c5.2,0,9.5,4.3,9.5,9.5v40c0,5.2-4.3,9.5-9.5,9.5H10c-5.2,0-9.5-4.3-9.5-9.5V10	C0.5,4.8,4.8,0.5,10,0.5z" class="st1"/><polygon points="30 10.2 13.7 41.3 30 49.8 46.3 41.4" class="st2"/><polygon points="30 33.4 13.7 41.3 30 49.8 46.3 41.4" class="st3"/><polygon points="30 33.4 20.4 28.6 13.7 41.3" class="st4"/><polygon points="39.7 28.7 30 33.4 46.3 41.4" class="st5"/><polygon points="30 49.8 30 33.4 13.7 41.3" class="st6"/><polygon points="30 10.2 30 33.4 39.7 28.7" class="st7"/></svg>